<?xml version="1.0" encoding="UTF-8"?>
<svg id="Layer_1" data-name="Layer 1" xmlns="http://www.w3.org/2000/svg" viewBox="0 0 588.81 186.1">
  <defs>
    <style>
      .cls-1 {
        isolation: isolate;
      }

      .cls-2 {
        fill: #f5a722;
      }

      .cls-2, .cls-3 {
        stroke-width: 0px;
      }

      .cls-3 {
        fill: #fff;
      }
    </style>
  </defs>
  <g class="cls-1">
    <g class="cls-1">
      <path class="cls-3" d="M0,89.52V1.26h36.31c7.82,0,14.52,1.26,20.11,3.78,5.59,2.52,9.9,6.14,12.92,10.84,3.03,4.71,4.54,10.3,4.54,16.77s-1.51,12.04-4.54,16.71c-3.03,4.67-7.33,8.24-12.92,10.72-5.59,2.48-12.29,3.72-20.11,3.72H9.08l7.31-7.44v33.16H0ZM16.39,58.12l-7.31-7.82h26.48c7.23,0,12.67-1.55,16.33-4.67,3.66-3.11,5.48-7.44,5.48-12.99s-1.83-9.96-5.48-12.99c-3.66-3.03-9.1-4.54-16.33-4.54H9.08l7.31-8.07v51.06ZM57.74,89.52l-22.32-32.02h17.53l22.44,32.02h-17.65Z"/>
    </g>
  </g>
  <g class="cls-1">
    <g class="cls-1">
      <path class="cls-3" d="M108.56,75.77h49.8v13.74h-66.19V1.26h64.43v13.74h-48.04v60.77ZM107.3,37.95h43.88v13.49h-43.88v-13.49Z"/>
    </g>
  </g>
  <g class="cls-1">
    <g class="cls-1">
      <path class="cls-3" d="M175.51,89.52V1.26h13.49l38.58,64.43h-7.06L258.47,1.26h13.49l.13,88.26h-15.51l-.13-63.92h3.28l-32.28,53.84h-7.31l-32.78-53.84h3.78v63.92h-15.63Z"/>
    </g>
  </g>
  <g class="cls-1">
    <g class="cls-1">
      <path class="cls-3" d="M336.51,90.78c-6.89,0-13.24-1.13-19.04-3.4-5.8-2.27-10.84-5.44-15.13-9.52-4.29-4.08-7.61-8.87-9.96-14.37-2.35-5.5-3.53-11.54-3.53-18.09s1.18-12.59,3.53-18.09c2.35-5.5,5.67-10.29,9.96-14.37,4.29-4.08,9.33-7.25,15.13-9.52,5.8-2.27,12.1-3.4,18.91-3.4s13.22,1.13,18.98,3.4c5.76,2.27,10.78,5.44,15.07,9.52,4.29,4.08,7.61,8.87,9.96,14.37,2.35,5.51,3.53,11.54,3.53,18.09s-1.18,12.61-3.53,18.16c-2.35,5.55-5.67,10.34-9.96,14.37-4.29,4.04-9.31,7.19-15.07,9.46-5.76,2.27-12.04,3.4-18.85,3.4ZM336.39,76.4c4.45,0,8.57-.76,12.36-2.27s7.06-3.68,9.83-6.49c2.77-2.82,4.94-6.09,6.49-9.83,1.55-3.74,2.33-7.88,2.33-12.42s-.78-8.68-2.33-12.42c-1.56-3.74-3.72-7.02-6.49-9.83-2.77-2.82-6.05-4.98-9.83-6.49s-7.9-2.27-12.36-2.27-8.55.76-12.29,2.27c-3.74,1.51-7.02,3.68-9.83,6.49s-5,6.09-6.56,9.83c-1.56,3.74-2.33,7.88-2.33,12.42s.78,8.57,2.33,12.36c1.55,3.78,3.72,7.08,6.49,9.9,2.77,2.82,6.05,4.98,9.83,6.49s7.9,2.27,12.36,2.27Z"/>
    </g>
  </g>
  <g class="cls-1">
    <g class="cls-1">
      <path class="cls-3" d="M400.7,89.52V1.26h36.31c7.82,0,14.52,1.26,20.11,3.78,5.59,2.52,9.9,6.14,12.92,10.84,3.03,4.71,4.54,10.3,4.54,16.77s-1.51,12.04-4.54,16.71-7.33,8.24-12.92,10.72c-5.59,2.48-12.29,3.72-20.11,3.72h-27.23l7.31-7.44v33.16h-16.39ZM417.09,58.12l-7.31-7.82h26.48c7.23,0,12.67-1.55,16.33-4.67,3.66-3.11,5.48-7.44,5.48-12.99s-1.83-9.96-5.48-12.99c-3.66-3.03-9.1-4.54-16.33-4.54h-26.48l7.31-8.07v51.06ZM458.44,89.52l-22.32-32.02h17.53l22.44,32.02h-17.65Z"/>
    </g>
  </g>
  <g class="cls-1">
    <g class="cls-1">
      <path class="cls-3" d="M493.12,89.52L532.83,1.26h16.14l39.84,88.26h-17.15l-34.17-79.56h6.56l-34.04,79.56h-16.89ZM511.4,69.09l4.41-12.86h47.66l4.41,12.86h-56.48Z"/>
    </g>
  </g>
  <g class="cls-1">
    <g class="cls-1">
      <path class="cls-2" d="M29.25,184.84v-74.39H0v-13.87h74.89v13.87h-29.25v74.39h-16.39Z"/>
    </g>
  </g>
  <g class="cls-1">
    <g class="cls-1">
      <path class="cls-2" d="M108.06,171.09h49.8v13.74h-66.19v-88.26h64.43v13.74h-48.04v60.77ZM106.8,133.27h43.88v13.49h-43.88v-13.49Z"/>
    </g>
  </g>
  <g class="cls-1">
    <g class="cls-1">
      <path class="cls-2" d="M219.89,186.1c-6.73,0-12.97-1.12-18.72-3.34-5.76-2.23-10.76-5.38-15-9.46-4.25-4.08-7.54-8.89-9.9-14.44-2.35-5.55-3.53-11.6-3.53-18.16s1.18-12.61,3.53-18.16c2.35-5.55,5.67-10.36,9.96-14.44,4.29-4.08,9.29-7.23,15-9.46,5.71-2.23,11.98-3.34,18.79-3.34,7.23,0,13.83,1.24,19.79,3.72,5.97,2.48,11.01,6.16,15.13,11.03l-10.59,9.96c-3.2-3.45-6.77-6.03-10.72-7.75-3.95-1.72-8.24-2.58-12.86-2.58s-8.85.76-12.67,2.27c-3.83,1.51-7.15,3.66-9.96,6.43-2.82,2.77-5,6.05-6.56,9.83-1.56,3.78-2.33,7.94-2.33,12.48s.78,8.7,2.33,12.48c1.55,3.78,3.74,7.06,6.56,9.83,2.81,2.77,6.13,4.92,9.96,6.43,3.82,1.51,8.05,2.27,12.67,2.27s8.91-.86,12.86-2.58c3.95-1.72,7.52-4.35,10.72-7.88l10.59,10.09c-4.12,4.79-9.16,8.45-15.13,10.97-5.97,2.52-12.61,3.78-19.92,3.78Z"/>
    </g>
  </g>
  <g class="cls-1">
    <g class="cls-1">
      <path class="cls-2" d="M288.1,184.84h-16.39v-88.26h16.39v88.26ZM335,147.01h-48.29v-14h48.29v14ZM333.74,96.58h16.39v88.26h-16.39v-88.26Z"/>
    </g>
  </g>
</svg>